<svg width="152" height="99" viewBox="0 0 152 99" fill="none" xmlns="http://www.w3.org/2000/svg">
<path d="M10.6883 57V5.16H17.9203V27.56H31.2323V5.16H38.4643V57H31.2323V32.744H17.9203V57H10.6883ZM80.9353 57L81.8953 5.16H88.9993L98.1513 47.208L107.367 5.16H114.407L115.367 57H109.543L108.967 19.368L100.199 57H96.1033L87.3993 19.368L86.8233 57H80.9353ZM123.313 57V5.16H143.409V10.536H130.545V27.688H140.977V32.808H130.545V51.816H143.537V57H123.313Z" fill="white"/>
<path d="M59.8113 57.576C56.3126 57.576 53.5179 56.8933 51.4273 55.528C49.3366 54.1627 47.8433 52.2213 46.9473 49.704C46.0513 47.144 45.6033 44.1573 45.6033 40.744V21.096C45.6033 17.6827 46.0513 14.76 46.9473 12.328C47.8859 9.85333 49.3793 7.976 51.4273 6.696C53.5179 5.37333 56.3126 4.712 59.8113 4.712C63.3099 4.712 66.0833 5.37333 68.1313 6.696C70.1793 8.01866 71.6513 9.896 72.5473 12.328C73.4859 14.76 73.9553 17.6827 73.9553 21.096V40.808C73.9553 44.1787 73.4859 47.1227 72.5473 49.64C71.6513 52.1573 70.1793 54.12 68.1313 55.528C66.0833 56.8933 63.3099 57.576 59.8113 57.576ZM59.8113 51.88C61.7313 51.88 63.1819 51.496 64.1633 50.728C65.1446 49.9173 65.8059 48.808 66.1473 47.4C66.4886 45.9493 66.6593 44.264 66.6593 42.344V19.624C66.6593 17.704 66.4886 16.0613 66.1473 14.696C65.8059 13.288 65.1446 12.2213 64.1633 11.496C63.1819 10.728 61.7313 10.344 59.8113 10.344C57.8913 10.344 56.4193 10.728 55.3953 11.496C54.4139 12.2213 53.7526 13.288 53.4113 14.696C53.0699 16.0613 52.8993 17.704 52.8993 19.624V42.344C52.8993 44.264 53.0699 45.9493 53.4113 47.4C53.7526 48.808 54.4139 49.9173 55.3953 50.728C56.4193 51.496 57.8913 51.88 59.8113 51.88Z" fill="#F5A300"/>
<path d="M34.7625 81L31.5945 61.56H33.8505L35.9385 75.528L38.5545 61.632H40.4745L43.1145 75.6L45.1545 61.56H47.3625L44.2425 81H42.2745L39.5625 66.6L36.8265 81H34.7625Z" fill="#F5A300"/>
<path d="M54.6948 81.216C53.3828 81.216 52.3348 80.96 51.5508 80.448C50.7668 79.936 50.2068 79.208 49.8708 78.264C49.5348 77.304 49.3668 76.184 49.3668 74.904V67.536C49.3668 66.256 49.5348 65.16 49.8708 64.248C50.2228 63.32 50.7828 62.616 51.5508 62.136C52.3348 61.64 53.3828 61.392 54.6948 61.392C56.0068 61.392 57.0468 61.64 57.8148 62.136C58.5828 62.632 59.1348 63.336 59.4708 64.248C59.8228 65.16 59.9988 66.256 59.9988 67.536V74.928C59.9988 76.192 59.8228 77.296 59.4708 78.24C59.1348 79.184 58.5828 79.92 57.8148 80.448C57.0468 80.96 56.0068 81.216 54.6948 81.216ZM54.6948 79.08C55.4148 79.08 55.9588 78.936 56.3268 78.648C56.6948 78.344 56.9428 77.928 57.0708 77.4C57.1988 76.856 57.2628 76.224 57.2628 75.504V66.984C57.2628 66.264 57.1988 65.648 57.0708 65.136C56.9428 64.608 56.6948 64.208 56.3268 63.936C55.9588 63.648 55.4148 63.504 54.6948 63.504C53.9748 63.504 53.4228 63.648 53.0388 63.936C52.6708 64.208 52.4228 64.608 52.2948 65.136C52.1668 65.648 52.1028 66.264 52.1028 66.984V75.504C52.1028 76.224 52.1668 76.856 52.2948 77.4C52.4228 77.928 52.6708 78.344 53.0388 78.648C53.4228 78.936 53.9748 79.08 54.6948 79.08ZM62.6643 81V61.56H66.5763C67.8723 61.56 68.9443 61.736 69.7923 62.088C70.6403 62.424 71.2643 62.976 71.6643 63.744C72.0803 64.496 72.2883 65.488 72.2883 66.72C72.2883 67.472 72.2083 68.16 72.0483 68.784C71.8883 69.392 71.6323 69.912 71.2803 70.344C70.9283 70.76 70.4643 71.064 69.8883 71.256L72.6483 81H70.0323L67.4883 71.88H65.3763V81H62.6643ZM65.3763 69.936H66.4083C67.1763 69.936 67.8003 69.84 68.2803 69.648C68.7603 69.456 69.1123 69.128 69.3363 68.664C69.5603 68.2 69.6723 67.552 69.6723 66.72C69.6723 65.584 69.4643 64.768 69.0483 64.272C68.6323 63.76 67.8083 63.504 66.5763 63.504H65.3763V69.936ZM75.1097 81V61.56H77.8217V70.728L82.2857 61.56H84.8057L80.9657 70.128L85.4297 81H82.7897L79.0697 71.88L77.8217 74.136V81H75.1097ZM91.8667 81.216C90.5547 81.216 89.5067 80.96 88.7227 80.448C87.9387 79.936 87.3787 79.208 87.0427 78.264C86.7067 77.304 86.5387 76.184 86.5387 74.904V67.536C86.5387 66.256 86.7067 65.16 87.0427 64.248C87.3947 63.32 87.9547 62.616 88.7227 62.136C89.5067 61.64 90.5547 61.392 91.8667 61.392C93.1787 61.392 94.2187 61.64 94.9867 62.136C95.7547 62.632 96.3067 63.336 96.6427 64.248C96.9947 65.16 97.1707 66.256 97.1707 67.536V74.928C97.1707 76.192 96.9947 77.296 96.6427 78.24C96.3067 79.184 95.7547 79.92 94.9867 80.448C94.2187 80.96 93.1787 81.216 91.8667 81.216ZM91.8667 79.08C92.5867 79.08 93.1307 78.936 93.4987 78.648C93.8667 78.344 94.1147 77.928 94.2427 77.4C94.3707 76.856 94.4347 76.224 94.4347 75.504V66.984C94.4347 66.264 94.3707 65.648 94.2427 65.136C94.1147 64.608 93.8667 64.208 93.4987 63.936C93.1307 63.648 92.5867 63.504 91.8667 63.504C91.1467 63.504 90.5947 63.648 90.2107 63.936C89.8427 64.208 89.5947 64.608 89.4667 65.136C89.3387 65.648 89.2747 66.264 89.2747 66.984V75.504C89.2747 76.224 89.3387 76.856 89.4667 77.4C89.5947 77.928 89.8427 78.344 90.2107 78.648C90.5947 78.936 91.1467 79.08 91.8667 79.08ZM104.852 81.216C103.444 81.216 102.364 80.936 101.612 80.376C100.86 79.816 100.348 79.032 100.076 78.024C99.8042 77 99.6682 75.808 99.6682 74.448V61.56H102.26V74.568C102.26 75.4 102.316 76.16 102.428 76.848C102.54 77.536 102.78 78.08 103.148 78.48C103.532 78.88 104.1 79.08 104.852 79.08C105.62 79.08 106.188 78.88 106.556 78.48C106.924 78.08 107.164 77.536 107.276 76.848C107.388 76.16 107.444 75.4 107.444 74.568V61.56H110.012V74.448C110.012 75.808 109.876 77 109.604 78.024C109.332 79.032 108.82 79.816 108.068 80.376C107.332 80.936 106.26 81.216 104.852 81.216ZM115.003 81V63.576H111.715V61.56H120.907V63.576H117.715V81H115.003Z" fill="white"/>
<rect width="6" height="9" rx="3" transform="matrix(-5.16191e-08 1 1 5.16191e-08 55 28)" fill="#F5A300"/>
</svg>
