<svg width="210" height="132" viewBox="0 0 210 132" fill="none" xmlns="http://www.w3.org/2000/svg">
<path d="M37.6883 90V38.16H44.9203V60.56H58.2323V38.16H65.4643V90H58.2323V65.744H44.9203V90H37.6883ZM107.935 90L108.895 38.16H115.999L125.151 80.208L134.367 38.16H141.407L142.367 90H136.543L135.967 52.368L127.199 90H123.103L114.399 52.368L113.823 90H107.935ZM150.313 90V38.16H170.409V43.536H157.545V60.688H167.977V65.808H157.545V84.816H170.537V90H150.313Z" fill="white"/>
<path d="M86.8113 90.576C83.3126 90.576 80.5179 89.8933 78.4273 88.528C76.3366 87.1627 74.8433 85.2213 73.9473 82.704C73.0513 80.144 72.6033 77.1573 72.6033 73.744V54.096C72.6033 50.6827 73.0513 47.76 73.9473 45.328C74.8859 42.8533 76.3793 40.976 78.4273 39.696C80.5179 38.3733 83.3126 37.712 86.8113 37.712C90.3099 37.712 93.0833 38.3733 95.1313 39.696C97.1793 41.0187 98.6513 42.896 99.5473 45.328C100.486 47.76 100.955 50.6827 100.955 54.096V73.808C100.955 77.1787 100.486 80.1227 99.5473 82.64C98.6513 85.1573 97.1793 87.12 95.1313 88.528C93.0833 89.8933 90.3099 90.576 86.8113 90.576ZM86.8113 84.88C88.7313 84.88 90.1819 84.496 91.1633 83.728C92.1446 82.9173 92.8059 81.808 93.1473 80.4C93.4886 78.9493 93.6593 77.264 93.6593 75.344V52.624C93.6593 50.704 93.4886 49.0613 93.1473 47.696C92.8059 46.288 92.1446 45.2213 91.1633 44.496C90.1819 43.728 88.7313 43.344 86.8113 43.344C84.8913 43.344 83.4193 43.728 82.3953 44.496C81.4139 45.2213 80.7526 46.288 80.4113 47.696C80.0699 49.0613 79.8993 50.704 79.8993 52.624V75.344C79.8993 77.264 80.0699 78.9493 80.4113 80.4C80.7526 81.808 81.4139 82.9173 82.3953 83.728C83.4193 84.496 84.8913 84.88 86.8113 84.88Z" fill="#FFD200"/>
<path d="M61.7625 114L58.5945 94.56H60.8505L62.9385 108.528L65.5545 94.632H67.4745L70.1145 108.6L72.1545 94.56H74.3625L71.2425 114H69.2745L66.5625 99.6L63.8265 114H61.7625Z" fill="#FFD200"/>
<path d="M81.6948 114.216C80.3828 114.216 79.3348 113.96 78.5508 113.448C77.7668 112.936 77.2068 112.208 76.8708 111.264C76.5348 110.304 76.3668 109.184 76.3668 107.904V100.536C76.3668 99.256 76.5348 98.16 76.8708 97.248C77.2228 96.32 77.7828 95.616 78.5508 95.136C79.3348 94.64 80.3828 94.392 81.6948 94.392C83.0068 94.392 84.0468 94.64 84.8148 95.136C85.5828 95.632 86.1348 96.336 86.4708 97.248C86.8228 98.16 86.9988 99.256 86.9988 100.536V107.928C86.9988 109.192 86.8228 110.296 86.4708 111.24C86.1348 112.184 85.5828 112.92 84.8148 113.448C84.0468 113.96 83.0068 114.216 81.6948 114.216ZM81.6948 112.08C82.4148 112.08 82.9588 111.936 83.3268 111.648C83.6948 111.344 83.9428 110.928 84.0708 110.4C84.1988 109.856 84.2628 109.224 84.2628 108.504V99.984C84.2628 99.264 84.1988 98.648 84.0708 98.136C83.9428 97.608 83.6948 97.208 83.3268 96.936C82.9588 96.648 82.4148 96.504 81.6948 96.504C80.9748 96.504 80.4228 96.648 80.0388 96.936C79.6708 97.208 79.4228 97.608 79.2948 98.136C79.1668 98.648 79.1028 99.264 79.1028 99.984V108.504C79.1028 109.224 79.1668 109.856 79.2948 110.4C79.4228 110.928 79.6708 111.344 80.0388 111.648C80.4228 111.936 80.9748 112.08 81.6948 112.08ZM89.6643 114V94.56H93.5763C94.8723 94.56 95.9443 94.736 96.7923 95.088C97.6403 95.424 98.2643 95.976 98.6643 96.744C99.0803 97.496 99.2883 98.488 99.2883 99.72C99.2883 100.472 99.2083 101.16 99.0483 101.784C98.8883 102.392 98.6323 102.912 98.2803 103.344C97.9283 103.76 97.4643 104.064 96.8883 104.256L99.6483 114H97.0323L94.4883 104.88H92.3763V114H89.6643ZM92.3763 102.936H93.4083C94.1763 102.936 94.8003 102.84 95.2803 102.648C95.7603 102.456 96.1123 102.128 96.3363 101.664C96.5603 101.2 96.6723 100.552 96.6723 99.72C96.6723 98.584 96.4643 97.768 96.0483 97.272C95.6323 96.76 94.8083 96.504 93.5763 96.504H92.3763V102.936ZM102.11 114V94.56H104.822V103.728L109.286 94.56H111.806L107.966 103.128L112.43 114H109.79L106.07 104.88L104.822 107.136V114H102.11ZM118.867 114.216C117.555 114.216 116.507 113.96 115.723 113.448C114.939 112.936 114.379 112.208 114.043 111.264C113.707 110.304 113.539 109.184 113.539 107.904V100.536C113.539 99.256 113.707 98.16 114.043 97.248C114.395 96.32 114.955 95.616 115.723 95.136C116.507 94.64 117.555 94.392 118.867 94.392C120.179 94.392 121.219 94.64 121.987 95.136C122.755 95.632 123.307 96.336 123.643 97.248C123.995 98.16 124.171 99.256 124.171 100.536V107.928C124.171 109.192 123.995 110.296 123.643 111.24C123.307 112.184 122.755 112.92 121.987 113.448C121.219 113.96 120.179 114.216 118.867 114.216ZM118.867 112.08C119.587 112.08 120.131 111.936 120.499 111.648C120.867 111.344 121.115 110.928 121.243 110.4C121.371 109.856 121.435 109.224 121.435 108.504V99.984C121.435 99.264 121.371 98.648 121.243 98.136C121.115 97.608 120.867 97.208 120.499 96.936C120.131 96.648 119.587 96.504 118.867 96.504C118.147 96.504 117.595 96.648 117.211 96.936C116.843 97.208 116.595 97.608 116.467 98.136C116.339 98.648 116.275 99.264 116.275 99.984V108.504C116.275 109.224 116.339 109.856 116.467 110.4C116.595 110.928 116.843 111.344 117.211 111.648C117.595 111.936 118.147 112.08 118.867 112.08ZM131.852 114.216C130.444 114.216 129.364 113.936 128.612 113.376C127.86 112.816 127.348 112.032 127.076 111.024C126.804 110 126.668 108.808 126.668 107.448V94.56H129.26V107.568C129.26 108.4 129.316 109.16 129.428 109.848C129.54 110.536 129.78 111.08 130.148 111.48C130.532 111.88 131.1 112.08 131.852 112.08C132.62 112.08 133.188 111.88 133.556 111.48C133.924 111.08 134.164 110.536 134.276 109.848C134.388 109.16 134.444 108.4 134.444 107.568V94.56H137.012V107.448C137.012 108.808 136.876 110 136.604 111.024C136.332 112.032 135.82 112.816 135.068 113.376C134.332 113.936 133.26 114.216 131.852 114.216ZM142.003 114V96.576H138.715V94.56H147.907V96.576H144.715V114H142.003Z" fill="white"/>
<rect x="35.4414" y="13.0379" width="6.17722" height="29.3418" rx="3.08861" transform="rotate(-30 35.4414 13.0379)" fill="#FFD200"/>
<rect width="6.17722" height="29.3418" rx="3.08861" transform="matrix(-0.866025 0.5 0.5 0.866025 17.3862 23.4621)" fill="#FFD200"/>
<rect x="40.2292" y="23.6476" width="6.17722" height="18.5316" rx="3.08861" transform="rotate(60 40.2292 23.6476)" fill="white"/>
<rect x="43.583" y="13.2412" width="6.17722" height="20.8481" rx="3.08861" transform="rotate(-30 43.583 13.2412)" fill="white"/>
<rect width="6.17722" height="20.8481" rx="3.08861" transform="matrix(-0.866025 0.5 0.5 0.866025 13.4915 30.6146)" fill="white"/>
<rect x="52.4968" y="14.7817" width="6.17722" height="8.49367" rx="3.08861" transform="rotate(-30 52.4968 14.7817)" fill="#FFD200"/>
<rect width="6.17722" height="8.49367" rx="3.08861" transform="matrix(-0.866025 0.5 0.5 0.866025 10.3687 39.1045)" fill="#FFD200"/>
<rect width="6" height="9" rx="3" transform="matrix(-5.16191e-08 1 1 5.16191e-08 82 61)" fill="#FFD200"/>
<rect x="174.057" y="121.873" width="6.17722" height="29.3418" rx="3.08861" transform="rotate(150 174.057 121.873)" fill="#FFD200"/>
<rect width="6.17722" height="29.3418" rx="3.08861" transform="matrix(0.866025 -0.5 -0.5 -0.866025 192.112 111.449)" fill="#FFD200"/>
<rect x="169.269" y="111.263" width="6.17722" height="18.5316" rx="3.08861" transform="rotate(-120 169.269 111.263)" fill="white"/>
<rect x="165.916" y="121.67" width="6.17722" height="20.8481" rx="3.08861" transform="rotate(150 165.916 121.67)" fill="white"/>
<rect width="6.17722" height="20.8481" rx="3.08861" transform="matrix(0.866025 -0.5 -0.5 -0.866025 196.007 104.296)" fill="white"/>
<rect x="157.002" y="120.129" width="6.17722" height="8.49367" rx="3.08861" transform="rotate(150 157.002 120.129)" fill="#FFD200"/>
<rect width="6.17722" height="8.49367" rx="3.08861" transform="matrix(0.866025 -0.5 -0.5 -0.866025 199.13 95.8062)" fill="#FFD200"/>
</svg>
