<svg width="29" height="30" viewBox="0 0 29 30" fill="none" xmlns="http://www.w3.org/2000/svg">
<path d="M6.56434 7.2175C6.95308 3.12549 10.3896 0 14.5 0C18.6104 0 22.0469 3.12549 22.4357 7.2175L22.8979 12.0833C23.0182 13.35 23.0784 13.9833 23.2351 14.5927C23.3387 14.9956 23.4736 15.3897 23.6384 15.7716C23.8879 16.3492 24.2283 16.8867 24.9091 17.9617L27.0556 21.3509C27.9146 22.7072 28.3441 23.3854 28.0591 23.9032C27.7741 24.4211 26.9714 24.4211 25.366 24.4211H3.63404C2.02863 24.4211 1.22593 24.4211 0.940933 23.9032C0.655936 23.3854 1.08542 22.7072 1.9444 21.3509L4.09095 17.9617C4.77175 16.8867 5.11214 16.3492 5.36156 15.7716C5.52645 15.3897 5.6613 14.9956 5.76489 14.5927C5.92158 13.9833 5.98175 13.35 6.10209 12.0833L6.56434 7.2175Z" fill="#FFD200"/>
<path d="M11.6987 28.4344C11.8639 28.5966 12.228 28.74 12.7345 28.8423C13.241 28.9446 13.8615 29 14.4999 29C15.1383 29 15.7588 28.9446 16.2653 28.8423C16.7718 28.74 17.1359 28.5966 17.3011 28.4344" stroke="#FFD200" stroke-width="2" stroke-linecap="round"/>
</svg>
