<svg width="28" height="28" viewBox="0 0 28 28" fill="none" xmlns="http://www.w3.org/2000/svg">
<path fill-rule="evenodd" clip-rule="evenodd" d="M15.439 5.56093L18.9999 2C20.3332 0.666667 20.9999 0 21.8283 0C22.6568 0 23.3234 0.666667 24.6568 2L25.2603 2.60359C26.5937 3.93693 27.2603 4.60359 27.2603 5.43202C27.2603 6.26045 26.5937 6.92711 25.2603 8.26045L21.7337 11.7871C19.1322 10.2773 16.9677 8.129 15.439 5.56093ZM13.9847 7.0152L2.33826 18.6616C1.9132 19.0867 1.70066 19.2992 1.56093 19.5603C1.4212 19.8214 1.36225 20.1162 1.24436 20.7056L0.0638518 26.6081C-0.00267026 26.9408 -0.0359313 27.1071 0.0586767 27.2017C0.153285 27.2963 0.31959 27.263 0.6522 27.1965L6.55474 26.016L6.55476 26.016C7.1442 25.8981 7.43892 25.8392 7.70001 25.6994C7.96111 25.5597 8.17364 25.3472 8.5987 24.9221L20.2756 13.2452C17.725 11.6712 15.5748 9.53602 13.9847 7.0152Z" fill="#FFD200"/>
</svg>
