<svg width="29" height="29" viewBox="0 0 29 29" fill="none" xmlns="http://www.w3.org/2000/svg">
<path fill-rule="evenodd" clip-rule="evenodd" d="M17.5802 1.80097V1.80099L17.6331 2.33053C17.7965 3.96406 17.8781 4.78083 18.4309 5.00982C18.9838 5.2388 19.6191 4.71901 20.8897 3.67943L21.3015 3.3425C21.9672 2.79779 22.3001 2.52543 22.6849 2.54463C23.0698 2.56382 23.3739 2.86795 23.9822 3.4762L25.5237 5.01773C26.1319 5.62598 26.4361 5.93011 26.4553 6.31494C26.4744 6.69978 26.2021 7.03266 25.6574 7.69842L25.3203 8.11037C24.2807 9.38097 23.761 10.0163 23.9899 10.5691C24.2189 11.1219 25.0357 11.2036 26.6692 11.3669L27.199 11.4199C28.0549 11.5055 28.4829 11.5483 28.7415 11.834C29 12.1197 29 12.5498 29 13.41V15.59C29 16.4502 29 16.8803 28.7415 17.166C28.4829 17.4517 28.0549 17.4945 27.199 17.5801H27.199L26.6697 17.633C25.0362 17.7964 24.2194 17.8781 23.9904 18.4309C23.7614 18.9837 24.2812 19.619 25.3208 20.8896L25.6574 21.3009C26.2021 21.9667 26.4744 22.2996 26.4552 22.6844C26.4361 23.0693 26.1319 23.3734 25.5237 23.9816L23.9821 25.5232C23.3739 26.1314 23.0698 26.4355 22.6849 26.4547C22.3001 26.4739 21.9672 26.2016 21.3015 25.6569L20.8897 25.32C19.6191 24.2804 18.9838 23.7606 18.431 23.9896C17.8782 24.2186 17.7965 25.0354 17.6332 26.6689L17.5802 27.199V27.199C17.4946 28.0549 17.4518 28.4829 17.1661 28.7415C16.8804 29 16.4503 29 15.5901 29H13.41C12.5498 29 12.1197 29 11.834 28.7415C11.5483 28.4829 11.5055 28.0549 11.42 27.199L11.367 26.6692C11.2036 25.0357 11.1219 24.2189 10.5691 23.9899C10.0163 23.7609 9.38102 24.2807 8.11042 25.3203L7.69827 25.6575C7.03251 26.2022 6.69964 26.4746 6.3148 26.4554C5.92997 26.4362 5.62584 26.1321 5.01759 25.5238L5.01758 25.5238L3.47606 23.9823C2.8678 23.374 2.56367 23.0699 2.54448 22.6851C2.52529 22.3002 2.79764 21.9674 3.34235 21.3016L3.67945 20.8896C4.71902 19.619 5.23881 18.9837 5.00983 18.4309C4.78084 17.8781 3.96408 17.7964 2.33054 17.6331L1.80099 17.5801H1.80097C0.945054 17.4945 0.517093 17.4517 0.258547 17.166C0 16.8803 0 16.4502 0 15.59V13.41C0 12.5498 0 12.1197 0.258547 11.834C0.517095 11.5483 0.945061 11.5055 1.80099 11.4199L2.33102 11.3669C3.96456 11.2035 4.78133 11.1219 5.01031 10.5691C5.23929 10.0162 4.7195 9.38094 3.67993 8.11035L3.34235 7.69775C2.79764 7.03199 2.52528 6.69912 2.54447 6.31428C2.56367 5.92945 2.8678 5.62532 3.47605 5.01706L5.01758 3.47554C5.62583 2.86728 5.92996 2.56316 6.31479 2.54396C6.69963 2.52477 7.03251 2.79712 7.69827 3.34184L8.11048 3.6791C9.38107 4.71868 10.0164 5.23847 10.5692 5.00948C11.122 4.7805 11.2037 3.96373 11.367 2.33019L11.42 1.80099C11.5055 0.945061 11.5483 0.517095 11.834 0.258547C12.1197 0 12.5498 0 13.41 0H15.5901C16.4503 0 16.8804 0 17.1661 0.258548C17.4518 0.517093 17.4946 0.945055 17.5802 1.80097ZM14.5002 20.3C17.7034 20.3 20.3002 17.7033 20.3002 14.5C20.3002 11.2968 17.7034 8.7 14.5002 8.7C11.2969 8.7 8.7002 11.2968 8.7002 14.5C8.7002 17.7033 11.2969 20.3 14.5002 20.3Z" fill="#FFD200"/>
</svg>
